<svg xmlns="http://www.w3.org/2000/svg" id="layer" x="0" y="0" version="1.1" xml:space="preserve" viewBox="0 0 404.3 413.919"><path id="path8" fill="#231f20" d="M143 324.719l.5-.5c.6-.3 1.1-.5 1.6-.8.5-.3.9-.6 1.3-1 .3 0 .5-.1.7-.3.2-.2.4-.4.5-.8.3-.3.6-.5.9-.7.3-.2.6-.4.9-.7l.4-.1c.1-.2.1-.3.2-.4.1-.1.2-.2.3-.2l.5-.5.9-.6c.5-.3 1-.6 1.4-.9.4-.3.7-.4.7-.4.1 0 .2 0 .3.1.1.1.1.2.1.2 0 .1-.1.1-.1.3-.1.1-.2.2-.2.4 0 0 0 .1.1.2 0 .1.1.2.1.3 0 .1-.1.3-.4.6-.2.3-.4.5-.6.7l-.6.8c-.3.1-.7.5-1 1-.4.5-.7.8-.9 1l-.2.2-.1.1-.4.4c-.1.1-.2.3-.3.3l-.5.3c-.3.1-.5.2-.6.4-.1.2-.2.4-.3.8-.2.2-.4.3-.7.5-.3.2-.7.5-1.3.8h-.2l-.1.2-.6.1c-.1.3-.3.5-.5.6-.2.2-.4.3-.6.3-.5.3-1.1.6-1.5.8-.5.2-.9.4-1.4.6l-.7.1c-.3.2-.6.3-.9.4-.3.1-.6.2-.9.2l-.8-.1h-.6c-.5 0-1-.1-1.5-.2s-1-.3-1.5-.6l-.4-.5c-1-.3-1.7-1-2.1-1.9-.4-.9-.5-2.5-.5-4.9-.3.3-.6.6-1 .8-.4.2-.8.4-1.4.5l-.4.6c-.5.3-.9.5-1.2.6-.3.1-.5.2-.7.2l-.4-.3c.1-.1.1-.2.1-.3v-.2l-.1-.1c0-.1-.1-.1-.2-.3l.1-.4s.1-.1.2-.3c.7-.9 1.6-1.7 2.5-2.6l.5-.6.2-.3c0-.1.1-.2.2-.2.1-.1.2-.1.4-.2l.4-.1c.2 0 .3-.1.5-.2.1-.1.3-.3.5-.6.2-.2.4-.4.7-.5.3-.2.5-.3.8-.4.3-.1.5-.2.7-.3.1-.1.2-.3.3-.6.6-.3 1.1-.6 1.5-.8.4-.2.7-.5.9-.8l.3-.5c.6-.5 1.3-1 2.1-1.5.7-.5 1.5-1 2.4-1.6l.5-.2c.2-.3.4-.5.6-.7.2-.2.5-.4.9-.5.2-.1.7-.3 1.4-.7.7-.4 1.5-.6 2.2-.6h.1c.2-.1.3-.1.4-.2h.3c.2 0 .3 0 .4.1.1.1.2.3.3.6v.8c0 .1 0 .3.1.6v.3c-.3.6-.6 1.1-1 1.5-.4.4-.9.9-1.5 1.3l-.6.3-.6.6h-.7l-.7.9c-.5.4-1 .7-1.4 1-.4.3-.8.7-1.2 1l-.9.4-.4.6c-.7.2-1.3.7-1.9 1.5-.5.8-.8 1.4-.8 2 0 .1 0 .3.1.5 0 .2.1.3.1.6l-.1.6.2.4c.1.7.5 1.3 1 1.6.5.3 1.2.5 2.2.5.1 0 .3 0 .7-.1.4 0 .6-.1.8-.1l.5-.5h.7zm-28.9-2.2l-.1-.6-.8.6-.4.3-.6.5c-.3.2-.6.3-.7.4-.2.1-.3.2-.4.3l-.3.3-.6.3c-.1.2-.2.4-.4.5-.2.1-.5.1-.9.1-.2 0-.3 0-.4-.1 0 0-.1-.2-.1-.4 0-.3.1-.5.2-.6.1-.1.3-.2.5-.4v-.6l.6-.6c.2-.2.4-.5.7-.8l.5-.6.4-.2c.1-.3.3-.5.5-.7.2-.2.5-.3.8-.5l.2-.4.8-.5.7-.6s.1-.1.1-.2.1-.2.1-.3v-.2l.3-.6-.1-.3.2-.5c.1-.7.3-1.3.4-1.7.2-.5.4-.9.6-1.3l.4-.2-.1-.4c.4-.8.9-1.5 1.5-2.2.6-.7 1.5-1.6 2.8-2.7h.3l.2-.3.3-.1.2-.4c.5-.4 1-.7 1.5-.9.5-.2 1-.3 1.6-.3h.5c.1 0 .2 0 .3.1l.3.1 1.2.4.4.5.2.1c.1.3.2.6.3.8.1.2.1.4.1.5v.5l.2.4-.1.7-.2.8-.4.6-.1.7c-.1.3-.3.5-.6.8-.2.3-.5.6-.9 1l-.2.4c-.5.6-1 1.2-1.7 1.8-.6.6-1.4 1.3-2.5 2.1l-.5.2-.2.3-1 .7-.4.5-.2.2v.2c0 .2 0 .4.1.6.1.2.2.5.3.8l.3.4.2.6c.5.4 1 .6 1.4.8.5.2.9.3 1.3.3.3 0 .6 0 .9-.2.3-.1.7-.3 1.2-.5l.4-.1 1-.7h.8l.2-.5c.1-.1.3-.3.7-.6.4-.4.8-.7 1.1-1l.5-.2.3-.5c.2-.2.5-.3.8-.5l.9-.3c.2-.3.4-.5.6-.6.2-.2.5-.3.8-.4l.5-.5c.2-.1.3-.1.5-.1.1 0 .3-.1.3-.1.2 0 .4 0 .5.1.1.1.1.2.1.4 0 .1 0 .2-.1.4-.1.1-.1.3-.2.4l-.1.4c-.1.2-.3.5-.6.8-.3.3-.6.6-1.1 1v.2c0 .2-.1.4-.2.5-.1.1-.3.2-.7.2-.3.5-.8 1.1-1.7 1.8-.3.2-.5.4-.6.5l-.5.4-.3.1c-.2.1-.3.3-.5.4-.2.1-.4.4-.7.6l-.3.4-.7.5c-.6.6-1.4 1-2.2 1.4-.8.3-1.4.5-2 .5h-.3l-.7-.1-.3.2h-.8c-.7 0-1.3-.1-1.8-.2-.5-.2-.8-.4-1.1-.7l-.4.1-.7-.6-.4-.7-.3-.3c-.2-.3-.3-.5-.5-.7-.1-.2-.2-.5-.3-.8zm7.9-9l.5-.3c0-.2.1-.4.3-.7.2-.3.2-.6.2-1 0-.3-.1-.4-.1-.5 0 0-.1-.1-.2-.1h-.1l-.5.3-1.1 1-1.1 1.1-1 1.4c-.1.2-.2.4-.3.7-.1.2-.1.4-.1.6v.1H118.8c.1 0 .1-.1.3-.1h.7c.1 0 .2-.1.3-.2l.3-.5.5-.5zm-37.5 4.4l.4-.4c.6-.7 1.5-1.7 2.6-2.9 3.1-3.6 5-5.5 5.6-5.7l.6-.2.6-.4.7-.2.4.1.4.1c.6.4 1 .8 1.2 1.1.2.3.3.7.3 1.1v.7c0 .2-.1.5-.2.8l-.1 1c-.1.4-.2.8-.3 1.1l-.3.9-.4.6v.5c-.2.5-.5 1-.7 1.6-.2.6-.5 1.4-.9 2.5l-.3.2.1.1c.1.1.1.2.1.4s-.1.4-.3.6c-.2.2-.3.5-.3.7v.2l1.2-1.1c.2-.4.5-.7.8-1.1.3-.4.7-.7 1.1-1.1l.4-.2.2-.3.1-.3c.1-.2.2-.4.3-.5.1-.2.2-.3.4-.4l.9-.5.4-.7c1.1-1 2-1.8 2.8-2.2.9-.5 1.7-.7 2.4-.7.5 0 1 .1 1.3.3.3.2.6.5.7.8l.5.6c.1.3.4.8.7 1.5.3.7.5 1.2.7 1.5l-.2.6c.2.1.5.5.8 1.2.3.6.6.9 1 .9.1 0 .2 0 .4-.1.1 0 .3-.1.5-.1l.3-.1.2-.4.7-.5.5-.5c.7-.2 1.5-.6 2.3-1.2.9-.6 1.5-1 1.8-1 .2 0 .3 0 .4.1.1.1.1.2.1.5 0 0 0 .1-.1.3-.1.2-.1.5-.2.7l-.4.4c-.5.6-1.1 1.3-1.7 1.9-.6.6-1.3 1.3-2 2.1l-.3.3-.5.3c-.1.4-.5.7-1 1-.1.1-.2.1-.2.2l-.4.4-1.2.5c-.3.1-.5.2-.7.3-.2.1-.3.1-.5.1-.7 0-1.4-.3-2-1-.7-.6-1.2-1.5-1.7-2.6l-.1-.6c-.4-.3-.7-.6-1-1-.3-.4-.7-.7-1-1.2-.1-.1-.2-.1-.3-.1h-.3c-.2 0-.5.1-.8.3-.3.2-.8.6-1.6 1.3l-.5.2-.5.7c-.2.3-.4.5-.7.7-.3.2-.5.3-.8.4l-.8 1.2c-1.1 1.3-2 2.3-2.6 2.9-.6.7-1.1 1.1-1.5 1.5-.5.6-.9 1-1.4 1.2-.5.2-1.1.3-1.8.3-.4 0-.7-.1-.8-.2-.1-.1-.3-.3-.3-.7l.1-.8-.2-.3.1-.6c.6-1.9 1-3.3 1.2-4.2.3-1 .4-1.5.4-1.7 0 0 0-.1.1-.3.1-.2.2-.4.2-.6l.3-.5c0-.1-.1-.2-.1-.2v-.2c0-.1.1-.5.3-1.1.2-.6.3-1 .3-1.4 0-.1 0-.2-.2-.2-.1-.1-.2-.1-.4-.1-.6 0-1.2.3-1.6.8-.4.6-.7.9-.8.9l-.8 1-.7.6-.4.1-.2.2-.2.3-.2.3c-.2.1-.3.2-.4.2l-.2.2-.5.5c-1.4 1.1-2.6 1.9-3.4 2.5-.8.6-1.3.8-1.6.8-.2 0-.3 0-.4-.2-.1-.1-.2-.3-.2-.4 0-.2.1-.4.2-.5.1-.2.3-.3.6-.5v-.5c.8-1 1.6-1.8 2.3-2.5.7-.7 1.1-1 1.2-1 0 0 0-.1-.1-.2 0-.1 0-.1.1-.1h.2c.1 0 .2 0 .2-.1.1-.1.1-.3.1-.5l.4-.3z" class="st2"/></svg>
